<?xml version="1.0" encoding="UTF-8" standalone="no"?>
<!-- Created with Inkscape (http://www.inkscape.org/) -->
<svg
   xmlns:dc="http://purl.org/dc/elements/1.1/"
   xmlns:cc="http://web.resource.org/cc/"
   xmlns:rdf="http://www.w3.org/1999/02/22-rdf-syntax-ns#"
   xmlns:svg="http://www.w3.org/2000/svg"
   xmlns="http://www.w3.org/2000/svg"
   xmlns:sodipodi="http://sodipodi.sourceforge.net/DTD/sodipodi-0.dtd"
   xmlns:inkscape="http://www.inkscape.org/namespaces/inkscape"
   version="1.0"
   width="900"
   height="900"
   id="svg2848"
   sodipodi:version="0.32"
   inkscape:version="0.45"
   sodipodi:docname="Wikimedia_Community_Logo-Cabal.svg"
   sodipodi:docbase="/home/fizyk/anizo/wiki/SVG/promocja"
   inkscape:output_extension="org.inkscape.output.svg.inkscape"
   sodipodi:modified="true">
  <metadata
     id="metadata2260">
    <rdf:RDF>
      <cc:Work
         rdf:about="">
        <dc:format>image/svg+xml</dc:format>
        <dc:type
           rdf:resource="http://purl.org/dc/dcmitype/StillImage" />
      </cc:Work>
    </rdf:RDF>
  </metadata>
  <sodipodi:namedview
     inkscape:window-height="589"
     inkscape:window-width="903"
     inkscape:pageshadow="2"
     inkscape:pageopacity="0.0"
     guidetolerance="10.0"
     gridtolerance="10.0"
     objecttolerance="10.0"
     borderopacity="1.0"
     bordercolor="#666666"
     pagecolor="#ffffff"
     id="base"
     inkscape:zoom="0.42"
     inkscape:cx="450"
     inkscape:cy="450"
     inkscape:window-x="0"
     inkscape:window-y="0"
     inkscape:current-layer="svg2848" />
  <defs
     id="defs2850" />
  <path
     d="M 449.96875,243.5 C 368.68339,243.5 307.06822,281.30036 258.4375,323.21875 C 209.80678,365.13714 171.60975,411.37171 139.09375,432.375 C 133.10553,436.24385 129.5,442.87072 129.5,450 C 129.49999,457.12928 133.10553,463.7874 139.09375,467.65625 C 171.60975,488.65955 209.80678,534.92536 258.4375,576.84375 C 307.06822,618.76214 368.68339,656.5625 449.96875,656.5625 C 531.37759,656.5625 593.01613,617.99665 641.59375,575.78125 C 690.17137,533.56585 728.43758,487.45934 760.40625,467.9375 C 766.65031,464.1226 770.46875,457.31723 770.46875,450 C 770.46872,442.68277 766.65031,435.90865 760.40625,432.09375 C 728.43758,412.57193 690.17137,366.4654 641.59375,324.25 C 593.01613,282.0346 531.3776,243.5 449.96875,243.5 z M 449.96875,285.875 C 540.36448,285.87501 614.125,359.63556 614.125,450.03125 C 614.12503,540.42696 540.36447,614.1875 449.96875,614.1875 C 360.47189,614.18753 287.41559,541.85069 285.96875,452.6875 C 285.96209,452.27726 285.90987,451.8797 285.90625,451.46875 C 285.88422,451.10093 285.83536,450.72586 285.84375,450.25 C 285.8353,449.80188 285.8564,449.35392 285.875,448.90625 C 285.87655,448.67464 285.90374,448.45015 285.90625,448.21875 C 285.91002,448.16681 285.90212,448.11441 285.90625,448.0625 C 286.25946,418.15142 294.58746,389.99938 309,365.90625 C 315.24004,355.47002 329.09501,351.97871 339.53125,358.21875 C 349.96748,364.45879 353.45879,378.31376 347.21875,388.75 C 336.49101,406.68333 330.34376,427.53911 330.34375,450.03125 C 330.34375,516.33903 383.66436,569.68752 449.96875,569.6875 C 516.27317,569.6875 569.62502,516.33566 569.625,450.03125 C 569.625,383.72686 516.27318,330.375 449.96875,330.375 C 428.34142,330.375 408.22099,336.0812 390.75,346.0625 C 380.19395,352.08162 366.41229,348.33795 360.375,337.75 C 354.33773,327.16208 358.11775,313.40193 368.6875,307.375 C 392.66258,293.67787 420.48647,285.875 449.96875,285.875 z M 449.96875,356.65625 C 501.49856,356.65625 543.34375,398.50143 543.34375,450.03125 C 543.34373,501.56106 501.49857,543.375 449.96875,543.375 C 398.43892,543.37498 356.625,501.56107 356.625,450.03125 C 356.625,398.50142 398.43893,356.65625 449.96875,356.65625 z "
     style="fill:#006699;fill-opacity:1;fill-rule:evenodd;stroke:none;stroke-width:42;stroke-linecap:round;stroke-linejoin:round;stroke-miterlimit:4;stroke-dasharray:none;stroke-opacity:1"
     id="path7774" />
  <path
     d="M 410.80224,371.084 C 401.20848,375.83698 392.84259,382.15032 385.8609,389.56734 C 389.33896,389.63433 392.83717,389.47849 396.33782,389.08504 C 400.37899,382.57337 405.22032,376.51901 410.80224,371.084 z M 419.07187,367.49685 C 426.52257,367.14542 433.92752,367.65299 441.14069,369.01032 C 443.6297,366.77962 445.95365,364.39412 448.12204,361.89964 C 438.41595,362.09772 428.61204,363.91466 419.07187,367.49685 z M 414.4958,375.58533 C 410.64638,379.37135 407.18431,383.47605 404.1187,387.83112 C 408.76994,386.83692 413.39535,385.40364 417.94416,383.53495 L 414.4958,375.58533 z M 419.89269,373.26431 L 423.3045,381.12972 C 427.4915,379.04757 431.4158,376.62662 435.07546,373.94258 C 430.0763,373.29207 424.99639,373.05367 419.89269,373.26431 z M 455.57888,362.067 C 453.26754,365.0496 450.75427,367.9007 448.04441,370.57828 C 461.33334,374.11428 473.7679,380.50421 484.38523,389.35439 C 488.32433,384.58741 491.88627,379.55063 495.06338,374.29648 C 483.1074,367.19316 469.55464,362.97287 455.57888,362.067 z M 380.96555,395.21285 C 372.27674,406.17889 366.33216,419.04882 363.58296,432.69021 C 369.67592,433.86778 375.87224,434.60901 382.12071,434.87486 C 382.74031,421.03099 386.44182,407.50961 392.8094,395.29828 C 388.84455,395.54497 384.88434,395.51014 380.96555,395.21285 z M 442.84607,375.2946 C 437.67351,379.62908 431.92299,383.40141 425.63506,386.50246 L 441.37911,422.79788 C 456.64186,415.56272 469.81557,405.60469 480.55966,393.77542 C 469.64177,384.67589 456.66749,378.3527 442.84607,375.2946 z M 399.8139,394.56123 C 392.7094,406.85506 388.59563,420.72828 387.95254,434.98668 C 404.00945,434.92003 420.31014,431.76606 436.01145,425.18627 L 420.28201,388.92454 C 413.57048,391.69133 406.70297,393.55988 399.8139,394.56123 z M 500.00468,377.47613 C 496.66689,382.98396 492.91463,388.25781 488.77765,393.2524 C 497.67278,401.66966 505.03981,411.96599 510.20764,423.87957 C 511.27548,426.34134 512.23419,428.8221 513.0752,431.32069 C 519.01488,425.20782 524.46972,418.70945 529.41111,411.86746 C 522.55552,397.56599 512.28497,385.92386 500.00468,377.47613 z M 362.61033,438.47518 C 360.64419,453.22821 362.39208,468.64866 368.40714,483.34792 C 376.78407,484.26781 385.26086,484.59957 393.77122,484.29248 C 392.31388,481.66223 390.97137,478.94507 389.75063,476.13083 C 384.75051,464.60385 382.26558,452.60855 382.04767,440.74991 C 375.49718,440.47715 368.99902,439.70532 362.61033,438.47518 z M 484.92793,397.66389 C 473.63513,410.12228 459.77937,420.60047 443.71697,428.18746 L 461.04638,468.13768 C 478.95681,459.85445 494.82341,448.91649 508.39005,435.9745 C 507.40411,432.69246 506.21506,429.43801 504.81805,426.21743 C 500.00601,415.12405 493.17224,405.52674 484.92793,397.66389 z M 387.87218,440.84489 C 388.11424,451.88725 390.4635,463.05769 395.12336,473.80027 C 396.65604,477.33362 398.39624,480.71131 400.31937,483.9335 C 418.9099,482.56028 437.58186,478.18409 455.67874,470.52608 L 438.34932,430.57584 C 421.86861,437.49221 404.74111,440.79698 387.87218,440.84489 z M 532.09236,418.04863 C 526.89077,424.97361 521.18032,431.55584 514.97153,437.72226 C 519.02878,453.40632 518.80513,469.48794 514.89742,484.56133 C 522.53633,479.03423 529.75336,473.07065 536.50759,466.7025 C 539.58006,450.87458 538.33498,434.05977 532.09236,418.04863 z M 371.20405,489.51894 C 378.88071,504.85377 390.53779,517.04587 404.35346,525.38843 C 413.44749,524.66002 422.54795,523.35402 431.61979,521.44553 C 417.93505,514.15825 405.99937,503.49586 397.20976,490.00508 C 388.49344,490.47348 379.80271,490.3002 371.20405,489.51894 z M 510.06967,442.43006 C 496.54853,454.87982 480.91735,465.45423 463.39156,473.5441 L 477.58677,506.26893 C 488.03333,501.49692 497.93347,496.02638 507.24048,489.88387 C 507.24333,489.87564 507.24718,489.86794 507.25002,489.85971 C 512.41967,474.8644 513.5851,458.48425 510.06967,442.43006 z M 403.9454,489.52473 C 413.35477,502.86457 426.13809,513.0271 440.59747,519.35227 C 451.23979,516.63711 461.79862,513.06857 472.21181,508.64048 L 458.01659,475.91565 C 440.34106,483.40097 422.1206,487.86205 403.9454,489.52473 z M 533.85045,477.00035 C 526.98674,482.96954 519.71928,488.56256 512.04726,493.7222 C 507.17466,506.88369 499.37303,518.97934 489.09596,528.97246 C 511.15302,518.06743 526.77006,498.96887 533.85045,477.00035 z M 413.7139,530.31328 C 434.31092,539.60485 458.39298,540.992 480.94423,532.50847 C 466.87605,533.17816 452.9713,530.71802 440.21455,525.4818 C 431.41265,527.64666 422.56453,529.24653 413.7139,530.31328 z M 503.38363,499.2613 C 495.90331,503.80589 488.08196,507.95702 479.93194,511.67535 L 485.45515,524.40822 C 492.92248,517.05959 498.95603,508.52748 503.38363,499.2613 z M 450.00229,522.85705 C 459.63233,525.83531 469.79987,527.18838 480.07288,526.76292 L 474.54967,514.03006 C 466.4445,517.47837 458.25599,520.42508 450.00229,522.85705 z "
     style="fill:#990000;fill-opacity:1;stroke:none;stroke-width:1;stroke-linecap:round;stroke-linejoin:round;stroke-miterlimit:4;stroke-dasharray:none;stroke-opacity:1"
     id="path2862" />
  <path
     d="M 450,0 C 296.44174,0 160.77984,77.047236 79.5625,194.5625 L 166.5625,244.8125 C 230.1847,157.10508 333.43928,100 450,100 C 566.56072,100 669.8153,157.10508 733.4375,244.8125 L 820.4375,194.5625 C 739.22016,77.047236 603.55826,0 450,0 z "
     style="fill:#990000;fill-opacity:1;stroke:none;stroke-width:10;stroke-linecap:round;stroke-linejoin:round;stroke-miterlimit:4;stroke-dasharray:none;stroke-opacity:1"
     id="path4005" />
  <path
     d="M 32.1875,282.75 C 11.448392,334.46664 0,390.90008 0,450 C 0,681.50364 175.0975,872.35712 400,897.25 L 400,796.375 C 230.47074,772.0781 100,626.21538 100,450 C 100,409.10844 107.03061,369.86372 119.9375,333.375 L 32.1875,282.75 z "
     style="fill:#339966;fill-opacity:1;stroke:none;stroke-width:10;stroke-linecap:round;stroke-linejoin:round;stroke-miterlimit:4;stroke-dasharray:none;stroke-opacity:1"
     id="path4003" />
  <path
     d="M 867.8125,282.75 L 780.0625,333.375 C 792.9694,369.86372 800,409.10844 800,450 C 800,626.21536 669.52928,772.0781 500,796.375 L 500,897.25 C 724.90248,872.35712 899.99998,681.50364 900,450 C 900,390.90008 888.5516,334.46664 867.8125,282.75 z "
     style="fill:#339966;fill-opacity:1;stroke:none;stroke-width:10;stroke-linecap:round;stroke-linejoin:round;stroke-miterlimit:4;stroke-dasharray:none;stroke-opacity:1"
     id="path3918" />
  <path
     d="M 379.72815,326.72182 C 400.44487,314.88623 424.42661,308.12116 449.97883,308.12116 C 528.308,308.12116 591.87948,371.69265 591.87948,450.02179 C 591.87948,528.35095 528.308,591.92245 449.97883,591.92245 C 371.64968,591.92245 308.0782,528.35095 308.0782,450.02179 M 308.0782,450.02179 C 308.0782,423.45411 315.39165,398.58419 328.11384,377.31678"
     style="fill:none;fill-opacity:1;stroke:#990000;stroke-width:21;stroke-linecap:round;stroke-linejoin:round;stroke-miterlimit:4;stroke-dasharray:none;stroke-opacity:1"
     id="path7781" />
</svg>
