<?xml version="1.0" encoding="UTF-8" standalone="no"?>
<svg
   xmlns:dc="http://purl.org/dc/elements/1.1/"
   xmlns:cc="http://creativecommons.org/ns#"
   xmlns:rdf="http://www.w3.org/1999/02/22-rdf-syntax-ns#"
   xmlns:svg="http://www.w3.org/2000/svg"
   xmlns="http://www.w3.org/2000/svg"
   xmlns:sodipodi="http://sodipodi.sourceforge.net/DTD/sodipodi-0.dtd"
   xmlns:inkscape="http://www.inkscape.org/namespaces/inkscape"
   width="201.66339"
   height="884.85724"
   viewBox="15 4 5.6913889 24.972638"
   id="svg10"
   version="1.1"
   inkscape:version="0.48+devel r10518"
   sodipodi:docname="education.svg">
  <metadata
     id="metadata62">
    <rdf:RDF>
      <cc:Work
         rdf:about="">
        <dc:format>image/svg+xml</dc:format>
        <dc:type
           rdf:resource="http://purl.org/dc/dcmitype/StillImage" />
      </cc:Work>
    </rdf:RDF>
  </metadata>
  <defs
     id="defs60">
    <marker
       inkscape:stockid="Arrow1Send"
       orient="auto"
       refY="0.0"
       refX="0.0"
       id="Arrow1Send"
       style="overflow:visible;">
      <path
         id="path911"
         d="M 0.0,0.0 L 5.0,-5.0 L -12.5,0.0 L 5.0,5.0 L 0.0,0.0 z "
         style="fill-rule:evenodd;stroke:#000000;stroke-width:1.0pt;"
         transform="scale(0.2) rotate(180) translate(6,0)" />
    </marker>
    <inkscape:path-effect
       effect="spiro"
       id="path-effect890"
       is_visible="true" />
  </defs>
  <sodipodi:namedview
     pagecolor="#ffffff"
     bordercolor="#666666"
     borderopacity="1"
     objecttolerance="10"
     gridtolerance="10"
     guidetolerance="10"
     inkscape:pageopacity="0"
     inkscape:pageshadow="2"
     inkscape:window-width="1280"
     inkscape:window-height="744"
     id="namedview58"
     showgrid="false"
     inkscape:zoom="0.56167253"
     inkscape:cx="100.8317"
     inkscape:cy="289.95385"
     inkscape:window-x="-4"
     inkscape:window-y="-4"
     inkscape:window-maximized="1"
     inkscape:current-layer="svg10"
     fit-margin-top="20"
     fit-margin-left="20"
     fit-margin-right="20"
     fit-margin-bottom="20" />
  <text
     style="font-size:0.80000001px;font-style:normal;font-weight:normal;text-anchor:middle;fill:#000000;font-family:sans"
     x="17.836943"
     y="6.0206938"
     id="text16" />
  <text
     style="font-size:0.80000001px;font-style:normal;font-weight:normal;text-anchor:middle;fill:#000000;font-family:sans"
     x="17.847544"
     y="6.9456935"
     id="text18" />
  <rect
     style="fill:#ffffff"
     x="15.611944"
     y="4.6206946"
     width="4.4499998"
     height="2.3499999"
     id="rect12" />
  <rect
     style="fill:#ffffff;stroke:#000000;stroke-width:0.09999133;stroke-miterlimit:4;stroke-dasharray:none"
     x="15.611944"
     y="4.6206946"
     width="4.4499998"
     height="2.3499999"
     id="rect14" />
  <g
     style="font-size:0.80000001px;font-style:normal;font-weight:normal;text-anchor:middle;fill:#000000;font-family:sans"
     id="text20">
    <path
       d="m 16.932646,6.0206947 0,-0.5050781 -0.188672,0 0,-0.067578 0.453906,0 0,0.067578 -0.189453,0 0,0.5050781 z"
       style="font-size:0.80000001px;font-style:normal;font-weight:normal;text-anchor:middle;fill:#000000;font-family:sans"
       id="path1401" />
    <path
       d="m 17.551005,5.887101 0.07266,0.00898 q -0.01719,0.063672 -0.06367,0.098828 -0.04649,0.035156 -0.11875,0.035156 -0.09102,0 -0.144336,-0.056055 -0.05332,-0.056055 -0.05332,-0.1572265 0,-0.1046875 0.05391,-0.1625 0.05391,-0.057812 0.139843,-0.057812 0.0832,0 0.135938,0.056641 0.05273,0.056641 0.05273,0.159375 0,0.00625 -3.9e-4,0.01875 l -0.309375,0 q 0.0039,0.068359 0.03867,0.1046875 0.03477,0.036328 0.08672,0.036328 0.03867,0 0.06602,-0.020312 0.02734,-0.020313 0.04336,-0.064844 z m -0.230859,-0.1136719 0.23164,0 q -0.0047,-0.052344 -0.02656,-0.078516 -0.03359,-0.040625 -0.08711,-0.040625 -0.04844,0 -0.08145,0.032422 -0.03301,0.032422 -0.03652,0.086719 z"
       style="font-size:0.80000001px;font-style:normal;font-weight:normal;text-anchor:middle;fill:#000000;font-family:sans"
       id="path1403" />
    <path
       d="m 17.684208,5.8968666 0.06953,-0.010937 q 0.0059,0.041797 0.03262,0.064062 0.02676,0.022266 0.0748,0.022266 0.04844,0 0.07188,-0.019726 0.02344,-0.019727 0.02344,-0.046289 0,-0.023828 -0.0207,-0.0375 -0.01445,-0.00937 -0.07187,-0.023828 -0.07734,-0.019531 -0.107227,-0.033789 -0.02988,-0.014258 -0.04531,-0.039453 -0.01543,-0.025195 -0.01543,-0.055664 0,-0.027734 0.01269,-0.051367 0.0127,-0.023633 0.03457,-0.039258 0.01641,-0.012109 0.04473,-0.020508 0.02832,-0.0084 0.06074,-0.0084 0.04883,0 0.08574,0.014062 0.03691,0.014063 0.05449,0.038086 0.01758,0.024024 0.02422,0.064258 l -0.06875,0.00937 q -0.0047,-0.032031 -0.02715,-0.05 -0.02246,-0.017969 -0.06348,-0.017969 -0.04844,0 -0.06914,0.016016 -0.0207,0.016016 -0.0207,0.0375 0,0.013672 0.0086,0.024609 0.0086,0.011328 0.02695,0.01875 0.01055,0.00391 0.06211,0.017969 0.07461,0.019922 0.104102,0.032617 0.02949,0.012695 0.04629,0.036914 0.0168,0.024219 0.0168,0.060156 0,0.035156 -0.02051,0.066211 -0.02051,0.031055 -0.05918,0.048047 -0.03867,0.016992 -0.0875,0.016992 -0.08086,0 -0.123242,-0.033594 -0.04238,-0.033594 -0.0541,-0.099609 z"
       style="font-size:0.80000001px;font-style:normal;font-weight:normal;text-anchor:middle;fill:#000000;font-family:sans"
       id="path1405" />
    <path
       d="m 18.265849,5.9578041 0.01016,0.062109 q -0.02969,0.00625 -0.05313,0.00625 -0.03828,0 -0.05937,-0.012109 -0.02109,-0.012109 -0.02969,-0.031836 -0.0086,-0.019727 -0.0086,-0.083008 l 0,-0.2386719 -0.05156,0 0,-0.054687 0.05156,0 0,-0.1027344 0.06992,-0.042187 0,0.1449219 0.0707,0 0,0.054687 -0.0707,0 0,0.2425781 q 0,0.030078 0.0037,0.038672 0.0037,0.00859 0.01211,0.013672 0.0084,0.00508 0.02402,0.00508 0.01172,0 0.03086,-0.00273 z"
       style="font-size:0.80000001px;font-style:normal;font-weight:normal;text-anchor:middle;fill:#000000;font-family:sans"
       id="path1407" />
    <path
       d="m 18.801396,6.0206947 -0.07031,0 0,-0.4480468 q -0.02539,0.024219 -0.0666,0.048438 -0.04121,0.024219 -0.07402,0.036328 l 0,-0.067969 q 0.05898,-0.027734 0.103125,-0.067187 0.04414,-0.039453 0.0625,-0.076563 l 0.04531,0 z"
       style="font-size:0.80000001px;font-style:normal;font-weight:normal;text-anchor:middle;fill:#000000;font-family:sans"
       id="path1409" />
  </g>
  <rect
     style="fill:#ffffff"
     x="15.611944"
     y="8.1840277"
     width="4.4499998"
     height="2.3499999"
     id="rect22" />
  <rect
     style="fill:#ffffff;stroke:#000000;stroke-width:0.10000000000000001;fill-opacity:1"
     x="15.611944"
     y="8.1840277"
     width="4.4499998"
     height="2.3499999"
     id="rect24" />
  <g
     style="font-size:0.80000001px;font-style:normal;font-weight:normal;text-anchor:middle;fill:#000000;font-family:sans"
     id="text26">
    <path
       d="m 16.065458,9.5840282 0,-0.5726562 0.07578,0 0,0.5726562 z"
       style="font-size:0.80000001px;font-style:normal;font-weight:normal;text-anchor:middle;fill:#000000;font-family:sans"
       id="path1412" />
    <path
       d="m 16.265458,9.5840282 0,-0.4148437 0.06328,0 0,0.058984 q 0.0457,-0.068359 0.132031,-0.068359 0.0375,0 0.06894,0.013477 0.03144,0.013476 0.04707,0.035351 0.01563,0.021875 0.02188,0.051953 0.0039,0.019531 0.0039,0.068359 l 0,0.2550781 -0.07031,0 0,-0.2523437 q 0,-0.042969 -0.0082,-0.064258 -0.0082,-0.021289 -0.0291,-0.033984 -0.0209,-0.012695 -0.04902,-0.012695 -0.04492,0 -0.07754,0.028516 -0.03262,0.028516 -0.03262,0.1082031 l 0,0.2265625 z"
       style="font-size:0.80000001px;font-style:normal;font-weight:normal;text-anchor:middle;fill:#000000;font-family:sans"
       id="path1414" />
    <path
       d="m 16.682646,9.4602001 0.06953,-0.010937 q 0.0059,0.041797 0.03262,0.064062 0.02676,0.022266 0.0748,0.022266 0.04844,0 0.07188,-0.019727 0.02344,-0.019727 0.02344,-0.046289 0,-0.023828 -0.0207,-0.0375 -0.01445,-0.00938 -0.07188,-0.023828 -0.07734,-0.019531 -0.107226,-0.033789 -0.02988,-0.014258 -0.04531,-0.039453 -0.01543,-0.025195 -0.01543,-0.055664 0,-0.027734 0.01269,-0.051367 0.0127,-0.023633 0.03457,-0.039258 0.01641,-0.012109 0.04473,-0.020508 0.02832,-0.0084 0.06074,-0.0084 0.04883,0 0.08574,0.014062 0.03691,0.014063 0.05449,0.038086 0.01758,0.024024 0.02422,0.064258 l -0.06875,0.00938 q -0.0047,-0.032031 -0.02715,-0.05 -0.02246,-0.017969 -0.06348,-0.017969 -0.04844,0 -0.06914,0.016016 -0.0207,0.016016 -0.0207,0.0375 0,0.013672 0.0086,0.024609 0.0086,0.011328 0.02695,0.01875 0.01055,0.00391 0.06211,0.017969 0.07461,0.019922 0.104101,0.032617 0.02949,0.012695 0.04629,0.036914 0.0168,0.024219 0.0168,0.060156 0,0.035156 -0.02051,0.066211 -0.02051,0.031055 -0.05918,0.048047 -0.03867,0.016992 -0.0875,0.016992 -0.08086,0 -0.123243,-0.033594 -0.04238,-0.033594 -0.0541,-0.099609 z"
       style="font-size:0.80000001px;font-style:normal;font-weight:normal;text-anchor:middle;fill:#000000;font-family:sans"
       id="path1416" />
    <path
       d="m 17.264286,9.5211376 0.01016,0.062109 q -0.02969,0.00625 -0.05313,0.00625 -0.03828,0 -0.05937,-0.012109 -0.02109,-0.012109 -0.02969,-0.031836 -0.0086,-0.019727 -0.0086,-0.083008 l 0,-0.2386719 -0.05156,0 0,-0.054687 0.05156,0 0,-0.1027344 0.06992,-0.042188 0,0.1449219 0.0707,0 0,0.054687 -0.0707,0 0,0.2425781 q 0,0.030078 0.0037,0.038672 0.0037,0.00859 0.01211,0.013672 0.0084,0.00508 0.02402,0.00508 0.01172,0 0.03086,-0.00273 z"
       style="font-size:0.80000001px;font-style:normal;font-weight:normal;text-anchor:middle;fill:#000000;font-family:sans"
       id="path1418" />
    <path
       d="m 17.331865,9.5840282 0,-0.4148437 0.06328,0 0,0.062891 q 0.02422,-0.044141 0.04473,-0.058203 0.02051,-0.014062 0.04512,-0.014062 0.03555,0 0.07227,0.022656 l -0.02422,0.065234 q -0.02578,-0.015234 -0.05156,-0.015234 -0.02305,0 -0.04141,0.013867 -0.01836,0.013867 -0.02617,0.038477 -0.01172,0.0375 -0.01172,0.082031 l 0,0.2171875 z"
       style="font-size:0.80000001px;font-style:normal;font-weight:normal;text-anchor:middle;fill:#000000;font-family:sans"
       id="path1420" />
    <path
       d="m 17.871708,9.5840282 0,-0.060938 q -0.04844,0.070312 -0.13164,0.070312 -0.03672,0 -0.06855,-0.014062 -0.03184,-0.014062 -0.04727,-0.035351 -0.01543,-0.021289 -0.02168,-0.052149 -0.0043,-0.020703 -0.0043,-0.065625 l 0,-0.2570312 0.07031,0 0,0.2300781 q 0,0.055078 0.0043,0.074219 0.0066,0.027734 0.02812,0.043555 0.02148,0.01582 0.05313,0.01582 0.03164,0 0.05937,-0.016211 0.02773,-0.016211 0.03926,-0.044141 0.01152,-0.02793 0.01152,-0.081055 l 0,-0.2222656 0.07031,0 0,0.4148437 z"
       style="font-size:0.80000001px;font-style:normal;font-weight:normal;text-anchor:middle;fill:#000000;font-family:sans"
       id="path1422" />
    <path
       d="m 18.315849,9.4320751 0.06914,0.00898 q -0.01133,0.071484 -0.05801,0.1119141 -0.04668,0.04043 -0.114649,0.04043 -0.08516,0 -0.136914,-0.055664 -0.05176,-0.055664 -0.05176,-0.1595703 0,-0.067188 0.02227,-0.1175782 0.02227,-0.050391 0.06777,-0.075586 0.04551,-0.025195 0.09902,-0.025195 0.06758,0 0.110547,0.03418 0.04297,0.03418 0.05508,0.09707 l -0.06836,0.010547 q -0.0098,-0.041797 -0.03457,-0.062891 -0.0248,-0.021094 -0.05996,-0.021094 -0.05313,0 -0.08633,0.038086 -0.0332,0.038086 -0.0332,0.1205078 0,0.083594 0.03203,0.1214844 0.03203,0.037891 0.08359,0.037891 0.04141,0 0.06914,-0.025391 0.02773,-0.025391 0.03516,-0.078125 z"
       style="font-size:0.80000001px;font-style:normal;font-weight:normal;text-anchor:middle;fill:#000000;font-family:sans"
       id="path1424" />
    <path
       d="m 18.598661,9.5211376 0.01016,0.062109 q -0.02969,0.00625 -0.05312,0.00625 -0.03828,0 -0.05938,-0.012109 -0.02109,-0.012109 -0.02969,-0.031836 -0.0086,-0.019727 -0.0086,-0.083008 l 0,-0.2386719 -0.05156,0 0,-0.054687 0.05156,0 0,-0.1027344 0.06992,-0.042188 0,0.1449219 0.0707,0 0,0.054687 -0.0707,0 0,0.2425781 q 0,0.030078 0.0037,0.038672 0.0037,0.00859 0.01211,0.013672 0.0084,0.00508 0.02402,0.00508 0.01172,0 0.03086,-0.00273 z"
       style="font-size:0.80000001px;font-style:normal;font-weight:normal;text-anchor:middle;fill:#000000;font-family:sans"
       id="path1426" />
    <path
       d="m 18.667411,9.0922314 0,-0.080859 0.07031,0 0,0.080859 z m 0,0.4917968 0,-0.4148437 0.07031,0 0,0.4148437 z"
       style="font-size:0.80000001px;font-style:normal;font-weight:normal;text-anchor:middle;fill:#000000;font-family:sans"
       id="path1428" />
    <path
       d="m 18.818974,9.3766064 q 0,-0.1152344 0.06406,-0.1707032 0.05352,-0.046094 0.130469,-0.046094 0.08555,0 0.139844,0.056055 0.0543,0.056055 0.0543,0.1548828 0,0.080078 -0.02402,0.1259766 -0.02402,0.045898 -0.06992,0.071289 -0.0459,0.025391 -0.100196,0.025391 -0.08711,0 -0.14082,-0.055859 -0.05371,-0.055859 -0.05371,-0.1609375 z m 0.07227,0 q 0,0.079688 0.03477,0.1193359 0.03477,0.039648 0.0875,0.039648 0.05234,0 0.08711,-0.039844 0.03477,-0.039844 0.03477,-0.1214844 0,-0.076953 -0.03496,-0.1166015 -0.03496,-0.039649 -0.08691,-0.039649 -0.05273,0 -0.0875,0.039453 -0.03477,0.039453 -0.03477,0.1191407 z"
       style="font-size:0.80000001px;font-style:normal;font-weight:normal;text-anchor:middle;fill:#000000;font-family:sans"
       id="path1430" />
    <path
       d="m 19.290458,9.5840282 0,-0.4148437 0.06328,0 0,0.058984 q 0.0457,-0.068359 0.132031,-0.068359 0.0375,0 0.06894,0.013477 0.03145,0.013476 0.04707,0.035351 0.01563,0.021875 0.02187,0.051953 0.0039,0.019531 0.0039,0.068359 l 0,0.2550781 -0.07031,0 0,-0.2523437 q 0,-0.042969 -0.0082,-0.064258 -0.0082,-0.021289 -0.0291,-0.033984 -0.0209,-0.012695 -0.04902,-0.012695 -0.04492,0 -0.07754,0.028516 -0.03262,0.028516 -0.03262,0.1082031 l 0,0.2265625 z"
       style="font-size:0.80000001px;font-style:normal;font-weight:normal;text-anchor:middle;fill:#000000;font-family:sans"
       id="path1432" />
  </g>
  <rect
     style="fill:#ffffff"
     x="15.611944"
     y="11.747361"
     width="4.4499998"
     height="2.3499999"
     id="rect28" />
  <rect
     style="fill:none;stroke:#000000;stroke-width:0.1"
     x="15.611944"
     y="11.747361"
     width="4.4499998"
     height="2.3499999"
     id="rect30" />
  <g
     style="font-size:0.80000001px;font-style:normal;font-weight:normal;text-anchor:middle;fill:#000000;font-family:sans"
     id="text32">
    <path
       d="m 16.932646,13.147361 0,-0.505078 -0.188672,0 0,-0.06758 0.453906,0 0,0.06758 -0.189453,0 0,0.505078 z"
       style="font-size:0.80000001px;font-style:normal;font-weight:normal;text-anchor:middle;fill:#000000;font-family:sans"
       id="path1390" />
    <path
       d="m 17.551005,13.013767 0.07266,0.009 q -0.01719,0.06367 -0.06367,0.09883 -0.04649,0.03516 -0.11875,0.03516 -0.09102,0 -0.144336,-0.05606 -0.05332,-0.05606 -0.05332,-0.157226 0,-0.104688 0.05391,-0.1625 0.05391,-0.05781 0.139843,-0.05781 0.0832,0 0.135938,0.05664 0.05273,0.05664 0.05273,0.159375 0,0.0062 -3.9e-4,0.01875 l -0.309375,0 q 0.0039,0.06836 0.03867,0.104687 0.03477,0.03633 0.08672,0.03633 0.03867,0 0.06602,-0.02031 0.02734,-0.02031 0.04336,-0.06484 z m -0.230859,-0.113672 0.23164,0 q -0.0047,-0.05234 -0.02656,-0.07851 -0.03359,-0.04063 -0.08711,-0.04063 -0.04844,0 -0.08145,0.03242 -0.03301,0.03242 -0.03652,0.08672 z"
       style="font-size:0.80000001px;font-style:normal;font-weight:normal;text-anchor:middle;fill:#000000;font-family:sans"
       id="path1392" />
    <path
       d="m 17.684208,13.023533 0.06953,-0.01094 q 0.0059,0.0418 0.03262,0.06406 0.02676,0.02226 0.0748,0.02226 0.04844,0 0.07188,-0.01973 0.02344,-0.01973 0.02344,-0.04629 0,-0.02383 -0.0207,-0.0375 -0.01445,-0.0094 -0.07187,-0.02383 -0.07734,-0.01953 -0.107227,-0.03379 -0.02988,-0.01426 -0.04531,-0.03945 -0.01543,-0.0252 -0.01543,-0.05566 0,-0.02773 0.01269,-0.05137 0.0127,-0.02363 0.03457,-0.03926 0.01641,-0.01211 0.04473,-0.02051 0.02832,-0.0084 0.06074,-0.0084 0.04883,0 0.08574,0.01406 0.03691,0.01406 0.05449,0.03809 0.01758,0.02402 0.02422,0.06426 l -0.06875,0.0094 q -0.0047,-0.03203 -0.02715,-0.05 -0.02246,-0.01797 -0.06348,-0.01797 -0.04844,0 -0.06914,0.01601 -0.0207,0.01602 -0.0207,0.0375 0,0.01367 0.0086,0.02461 0.0086,0.01133 0.02695,0.01875 0.01055,0.0039 0.06211,0.01797 0.07461,0.01992 0.104102,0.03262 0.02949,0.0127 0.04629,0.03692 0.0168,0.02422 0.0168,0.06016 0,0.03516 -0.02051,0.06621 -0.02051,0.03105 -0.05918,0.04805 -0.03867,0.01699 -0.0875,0.01699 -0.08086,0 -0.123242,-0.03359 -0.04238,-0.03359 -0.0541,-0.09961 z"
       style="font-size:0.80000001px;font-style:normal;font-weight:normal;text-anchor:middle;fill:#000000;font-family:sans"
       id="path1394" />
    <path
       d="m 18.265849,13.08447 0.01016,0.06211 q -0.02969,0.0062 -0.05313,0.0062 -0.03828,0 -0.05937,-0.01211 -0.02109,-0.01211 -0.02969,-0.03184 -0.0086,-0.01973 -0.0086,-0.08301 l 0,-0.238671 -0.05156,0 0,-0.05469 0.05156,0 0,-0.102734 0.06992,-0.04219 0,0.144922 0.0707,0 0,0.05469 -0.0707,0 0,0.242578 q 0,0.03008 0.0037,0.03867 0.0037,0.0086 0.01211,0.01367 0.0084,0.0051 0.02402,0.0051 0.01172,0 0.03086,-0.0027 z"
       style="font-size:0.80000001px;font-style:normal;font-weight:normal;text-anchor:middle;fill:#000000;font-family:sans"
       id="path1396" />
    <path
       d="m 18.906083,13.079783 0,0.06758 -0.378515,0 q -7.82e-4,-0.02539 0.0082,-0.04883 0.01445,-0.03867 0.04629,-0.07617 0.03184,-0.0375 0.09199,-0.08672 0.09336,-0.07656 0.126172,-0.121289 0.03281,-0.04473 0.03281,-0.08457 0,-0.0418 -0.02988,-0.07051 -0.02988,-0.02871 -0.07793,-0.02871 -0.05078,0 -0.08125,0.03047 -0.03047,0.03047 -0.03086,0.08437 l -0.07227,-0.0074 q 0.0074,-0.08086 0.05586,-0.123242 0.04844,-0.04238 0.130078,-0.04238 0.08242,0 0.130469,0.0457 0.04805,0.0457 0.04805,0.113281 0,0.03438 -0.01406,0.06758 -0.01406,0.0332 -0.04668,0.06992 -0.03262,0.03672 -0.108399,0.100781 -0.06328,0.05312 -0.08125,0.07207 -0.01797,0.01895 -0.02969,0.03809 z"
       style="font-size:0.80000001px;font-style:normal;font-weight:normal;text-anchor:middle;fill:#000000;font-family:sans"
       id="path1398" />
  </g>
  <rect
     style="fill:#ffffff"
     x="15.611944"
     y="18.874027"
     width="4.4499998"
     height="2.3499999"
     id="rect34" />
  <rect
     style="fill:#ffffff;stroke:#000000;stroke-width:0.10000000000000001"
     x="15.611944"
     y="18.874027"
     width="4.4499998"
     height="2.3499999"
     id="rect36" />
  <g
     style="font-size:0.80000001px;font-style:normal;font-weight:normal;text-anchor:middle;fill:#000000;font-family:sans"
     id="text38">
    <path
       d="m 16.932646,20.274027 0,-0.505078 -0.188672,0 0,-0.06758 0.453906,0 0,0.06758 -0.189453,0 0,0.505078 z"
       style="font-size:0.80000001px;font-style:normal;font-weight:normal;text-anchor:middle;fill:#000000;font-family:sans"
       id="path1379" />
    <path
       d="m 17.551005,20.140433 0.07266,0.009 q -0.01719,0.06367 -0.06367,0.09883 -0.04649,0.03516 -0.11875,0.03516 -0.09102,0 -0.144336,-0.05605 -0.05332,-0.05606 -0.05332,-0.157226 0,-0.104688 0.05391,-0.1625 0.05391,-0.05781 0.139843,-0.05781 0.0832,0 0.135938,0.05664 0.05273,0.05664 0.05273,0.159375 0,0.0063 -3.9e-4,0.01875 l -0.309375,0 q 0.0039,0.06836 0.03867,0.104687 0.03477,0.03633 0.08672,0.03633 0.03867,0 0.06602,-0.02031 0.02734,-0.02031 0.04336,-0.06484 z m -0.230859,-0.113672 0.23164,0 q -0.0047,-0.05234 -0.02656,-0.07851 -0.03359,-0.04063 -0.08711,-0.04063 -0.04844,0 -0.08145,0.03242 -0.03301,0.03242 -0.03652,0.08672 z"
       style="font-size:0.80000001px;font-style:normal;font-weight:normal;text-anchor:middle;fill:#000000;font-family:sans"
       id="path1381" />
    <path
       d="m 17.684208,20.150199 0.06953,-0.01094 q 0.0059,0.0418 0.03262,0.06406 0.02676,0.02227 0.0748,0.02227 0.04844,0 0.07188,-0.01973 0.02344,-0.01973 0.02344,-0.04629 0,-0.02383 -0.0207,-0.0375 -0.01445,-0.0094 -0.07187,-0.02383 -0.07734,-0.01953 -0.107227,-0.03379 -0.02988,-0.01426 -0.04531,-0.03945 -0.01543,-0.0252 -0.01543,-0.05566 0,-0.02773 0.01269,-0.05137 0.0127,-0.02363 0.03457,-0.03926 0.01641,-0.01211 0.04473,-0.02051 0.02832,-0.0084 0.06074,-0.0084 0.04883,0 0.08574,0.01406 0.03691,0.01406 0.05449,0.03809 0.01758,0.02402 0.02422,0.06426 l -0.06875,0.0094 q -0.0047,-0.03203 -0.02715,-0.05 -0.02246,-0.01797 -0.06348,-0.01797 -0.04844,0 -0.06914,0.01601 -0.0207,0.01602 -0.0207,0.0375 0,0.01367 0.0086,0.02461 0.0086,0.01133 0.02695,0.01875 0.01055,0.0039 0.06211,0.01797 0.07461,0.01992 0.104102,0.03262 0.02949,0.0127 0.04629,0.03691 0.0168,0.02422 0.0168,0.06016 0,0.03516 -0.02051,0.06621 -0.02051,0.03105 -0.05918,0.04805 -0.03867,0.01699 -0.0875,0.01699 -0.08086,0 -0.123242,-0.03359 -0.04238,-0.03359 -0.0541,-0.09961 z"
       style="font-size:0.80000001px;font-style:normal;font-weight:normal;text-anchor:middle;fill:#000000;font-family:sans"
       id="path1383" />
    <path
       d="m 18.265849,20.211136 0.01016,0.06211 q -0.02969,0.0063 -0.05313,0.0063 -0.03828,0 -0.05937,-0.01211 -0.02109,-0.01211 -0.02969,-0.03184 -0.0086,-0.01973 -0.0086,-0.08301 l 0,-0.238671 -0.05156,0 0,-0.05469 0.05156,0 0,-0.102734 0.06992,-0.04219 0,0.144922 0.0707,0 0,0.05469 -0.0707,0 0,0.242578 q 0,0.03008 0.0037,0.03867 0.0037,0.0086 0.01211,0.01367 0.0084,0.0051 0.02402,0.0051 0.01172,0 0.03086,-0.0027 z"
       style="font-size:0.80000001px;font-style:normal;font-weight:normal;text-anchor:middle;fill:#000000;font-family:sans"
       id="path1385" />
    <path
       d="m 18.536943,20.122855 0.07031,-0.0094 q 0.01211,0.05977 0.04121,0.08613 0.0291,0.02637 0.0709,0.02637 0.04961,0 0.08379,-0.03438 0.03418,-0.03438 0.03418,-0.08516 0,-0.04844 -0.03164,-0.07988 -0.03164,-0.03144 -0.08047,-0.03144 -0.01992,0 -0.04961,0.0078 l 0.0078,-0.06172 q 0.007,7.82e-4 0.01133,7.82e-4 0.04492,0 0.08086,-0.02344 0.03594,-0.02344 0.03594,-0.07227 0,-0.03867 -0.02617,-0.06406 -0.02617,-0.02539 -0.06758,-0.02539 -0.04102,0 -0.06836,0.02578 -0.02734,0.02578 -0.03516,0.07734 l -0.07031,-0.0125 q 0.01289,-0.0707 0.05859,-0.10957 0.0457,-0.03887 0.113672,-0.03887 0.04687,0 0.08633,0.02012 0.03945,0.02012 0.06035,0.05488 0.0209,0.03477 0.0209,0.07383 0,0.03711 -0.01992,0.06758 -0.01992,0.03047 -0.05898,0.04844 0.05078,0.01172 0.07891,0.04863 0.02812,0.03691 0.02812,0.09238 0,0.075 -0.05469,0.127149 -0.05469,0.05215 -0.138281,0.05215 -0.07539,0 -0.125195,-0.04492 -0.04981,-0.04492 -0.05684,-0.116406 z"
       style="font-size:0.80000001px;font-style:normal;font-weight:normal;text-anchor:middle;fill:#000000;font-family:sans"
       id="path1387" />
  </g>
  <rect
     style="fill:#ffffff"
     x="15.611944"
     y="15.310695"
     width="4.4499998"
     height="2.3499999"
     id="rect40" />
  <rect
     style="fill:none;stroke:#000000;stroke-width:0.1"
     x="15.611944"
     y="15.310695"
     width="4.4499998"
     height="2.3499999"
     id="rect42" />
  <g
     style="font-size:0.80000001px;font-style:normal;font-weight:normal;text-anchor:middle;fill:#000000;font-family:sans"
     id="text44">
    <path
       d="m 16.115849,16.526711 0.07148,-0.0062 q 0.0051,0.04297 0.02363,0.07051 0.01855,0.02754 0.05762,0.04453 0.03906,0.01699 0.08789,0.01699 0.04336,0 0.07656,-0.01289 0.0332,-0.01289 0.04941,-0.03535 0.01621,-0.02246 0.01621,-0.04902 0,-0.02695 -0.01563,-0.04707 -0.01563,-0.02012 -0.05156,-0.03379 -0.02305,-0.009 -0.101953,-0.02793 -0.07891,-0.01894 -0.110547,-0.03574 -0.04102,-0.02148 -0.06113,-0.05332 -0.02012,-0.03184 -0.02012,-0.07129 0,-0.04336 0.02461,-0.08105 0.02461,-0.0377 0.07187,-0.05723 0.04727,-0.01953 0.105078,-0.01953 0.06367,0 0.112305,0.02051 0.04863,0.02051 0.0748,0.06035 0.02617,0.03984 0.02813,0.09023 l -0.07266,0.0055 q -0.0059,-0.0543 -0.03965,-0.08203 -0.03379,-0.02773 -0.0998,-0.02773 -0.06875,0 -0.100195,0.0252 -0.03144,0.0252 -0.03144,0.06074 0,0.03086 0.02226,0.05078 0.02188,0.01992 0.114258,0.04082 0.09238,0.0209 0.126758,0.03652 0.05,0.02305 0.07383,0.0584 0.02383,0.03535 0.02383,0.08145 0,0.0457 -0.02617,0.08613 -0.02617,0.04043 -0.07519,0.06289 -0.04902,0.02246 -0.110351,0.02246 -0.07774,0 -0.130274,-0.02266 -0.05254,-0.02266 -0.08242,-0.06816 -0.02988,-0.04551 -0.03144,-0.10293 z"
       style="font-size:0.80000001px;font-style:normal;font-weight:normal;text-anchor:middle;fill:#000000;font-family:sans"
       id="path1435" />
    <path
       d="m 16.951005,16.577102 0.07266,0.009 q -0.01719,0.06367 -0.06367,0.09883 -0.04649,0.03516 -0.11875,0.03516 -0.09102,0 -0.144336,-0.05605 -0.05332,-0.05606 -0.05332,-0.157227 0,-0.104687 0.05391,-0.1625 0.05391,-0.05781 0.139843,-0.05781 0.0832,0 0.135938,0.05664 0.05273,0.05664 0.05273,0.159375 0,0.0063 -3.9e-4,0.01875 l -0.309375,0 q 0.0039,0.06836 0.03867,0.104688 0.03477,0.03633 0.08672,0.03633 0.03867,0 0.06602,-0.02031 0.02734,-0.02031 0.04336,-0.06484 z m -0.230859,-0.113672 0.23164,0 q -0.0047,-0.05234 -0.02656,-0.07852 -0.03359,-0.04062 -0.08711,-0.04062 -0.04844,0 -0.08145,0.03242 -0.03301,0.03242 -0.03652,0.08672 z"
       style="font-size:0.80000001px;font-style:normal;font-weight:normal;text-anchor:middle;fill:#000000;font-family:sans"
       id="path1437" />
    <path
       d="m 17.110771,16.710695 0,-0.572656 0.07031,0 0,0.572656 z"
       style="font-size:0.80000001px;font-style:normal;font-weight:normal;text-anchor:middle;fill:#000000;font-family:sans"
       id="path1439" />
    <path
       d="m 17.307255,16.710695 0,-0.360156 -0.06211,0 0,-0.05469 0.06211,0 0,-0.04414 q 0,-0.0418 0.0074,-0.06211 0.01016,-0.02734 0.03574,-0.04434 0.02559,-0.01699 0.07168,-0.01699 0.02969,0 0.06563,0.007 l -0.01055,0.06133 q -0.02188,-0.0039 -0.04141,-0.0039 -0.03203,0 -0.04531,0.01367 -0.01328,0.01367 -0.01328,0.05117 l 0,0.03828 0.08086,0 0,0.05469 -0.08086,0 0,0.360156 z"
       style="font-size:0.80000001px;font-style:normal;font-weight:normal;text-anchor:middle;fill:#000000;font-family:sans"
       id="path1441" />
    <path
       d="m 17.706083,16.586867 0.06953,-0.01094 q 0.0059,0.0418 0.03262,0.06406 0.02676,0.02227 0.0748,0.02227 0.04844,0 0.07187,-0.01973 0.02344,-0.01973 0.02344,-0.04629 0,-0.02383 -0.0207,-0.0375 -0.01445,-0.0094 -0.07188,-0.02383 -0.07734,-0.01953 -0.107227,-0.03379 -0.02988,-0.01426 -0.04531,-0.03945 -0.01543,-0.0252 -0.01543,-0.05566 0,-0.02773 0.0127,-0.05137 0.0127,-0.02363 0.03457,-0.03926 0.01641,-0.01211 0.04473,-0.02051 0.02832,-0.0084 0.06074,-0.0084 0.04883,0 0.08574,0.01406 0.03691,0.01406 0.05449,0.03809 0.01758,0.02402 0.02422,0.06426 l -0.06875,0.0094 q -0.0047,-0.03203 -0.02715,-0.05 -0.02246,-0.01797 -0.06348,-0.01797 -0.04844,0 -0.06914,0.01602 -0.0207,0.01601 -0.0207,0.0375 0,0.01367 0.0086,0.02461 0.0086,0.01133 0.02695,0.01875 0.01055,0.0039 0.06211,0.01797 0.07461,0.01992 0.104102,0.03262 0.02949,0.0127 0.04629,0.03691 0.0168,0.02422 0.0168,0.06016 0,0.03516 -0.02051,0.06621 -0.02051,0.03105 -0.05918,0.04805 -0.03867,0.01699 -0.0875,0.01699 -0.08086,0 -0.123242,-0.03359 -0.04238,-0.03359 -0.0541,-0.09961 z"
       style="font-size:0.80000001px;font-style:normal;font-weight:normal;text-anchor:middle;fill:#000000;font-family:sans"
       id="path1443" />
    <path
       d="m 18.287724,16.647805 0.01016,0.06211 q -0.02969,0.0062 -0.05312,0.0062 -0.03828,0 -0.05938,-0.01211 -0.02109,-0.01211 -0.02969,-0.03184 -0.0086,-0.01973 -0.0086,-0.08301 l 0,-0.238672 -0.05156,0 0,-0.05469 0.05156,0 0,-0.102735 0.06992,-0.04219 0,0.144922 0.0707,0 0,0.05469 -0.0707,0 0,0.242578 q 0,0.03008 0.0037,0.03867 0.0037,0.0086 0.01211,0.01367 0.0084,0.0051 0.02402,0.0051 0.01172,0 0.03086,-0.0027 z"
       style="font-size:0.80000001px;font-style:normal;font-weight:normal;text-anchor:middle;fill:#000000;font-family:sans"
       id="path1445" />
    <path
       d="m 18.627958,16.710695 0,-0.06094 q -0.04844,0.07031 -0.13164,0.07031 -0.03672,0 -0.06855,-0.01406 -0.03184,-0.01406 -0.04727,-0.03535 -0.01543,-0.02129 -0.02168,-0.05215 -0.0043,-0.0207 -0.0043,-0.06562 l 0,-0.257031 0.07031,0 0,0.230078 q 0,0.05508 0.0043,0.07422 0.0066,0.02773 0.02812,0.04355 0.02148,0.01582 0.05313,0.01582 0.03164,0 0.05937,-0.01621 0.02773,-0.01621 0.03926,-0.04414 0.01152,-0.02793 0.01152,-0.08105 l 0,-0.222265 0.07031,0 0,0.414843 z"
       style="font-size:0.80000001px;font-style:normal;font-weight:normal;text-anchor:middle;fill:#000000;font-family:sans"
       id="path1447" />
    <path
       d="m 19.070536,16.710695 0,-0.05234 q -0.03945,0.06172 -0.116015,0.06172 -0.04961,0 -0.09121,-0.02734 -0.0416,-0.02734 -0.06445,-0.07637 -0.02285,-0.04902 -0.02285,-0.112695 0,-0.06211 0.0207,-0.112695 0.0207,-0.05059 0.06211,-0.07754 0.04141,-0.02695 0.09258,-0.02695 0.0375,0 0.0668,0.01582 0.0293,0.01582 0.04766,0.04121 l 0,-0.205469 0.06992,0 0,0.572656 z m -0.222265,-0.207031 q 0,0.07969 0.03359,0.119141 0.03359,0.03945 0.0793,0.03945 0.04609,0 0.07832,-0.0377 0.03223,-0.03769 0.03223,-0.115039 0,-0.08516 -0.03281,-0.125 -0.03281,-0.03984 -0.08086,-0.03984 -0.04687,0 -0.07832,0.03828 -0.03144,0.03828 -0.03144,0.120703 z"
       style="font-size:0.80000001px;font-style:normal;font-weight:normal;text-anchor:middle;fill:#000000;font-family:sans"
       id="path1449" />
    <path
       d="m 19.243583,16.870461 -0.0078,-0.06602 q 0.02305,0.0062 0.04023,0.0062 0.02344,0 0.0375,-0.0078 0.01406,-0.0078 0.02305,-0.02188 0.0066,-0.01055 0.02148,-0.05234 0.002,-0.0059 0.0063,-0.01719 l -0.157421,-0.415625 0.07578,0 0.08633,0.240234 q 0.0168,0.0457 0.03008,0.09609 0.01211,-0.04844 0.02891,-0.09453 l 0.08867,-0.241796 0.07031,0 -0.157813,0.421875 q -0.02539,0.06836 -0.03945,0.09414 -0.01875,0.03477 -0.04297,0.05098 -0.02422,0.01621 -0.05781,0.01621 -0.02031,0 -0.04531,-0.0086 z"
       style="font-size:0.80000001px;font-style:normal;font-weight:normal;text-anchor:middle;fill:#000000;font-family:sans"
       id="path1451" />
  </g>
  <rect
     style="fill:#ffffff"
     x="15.611944"
     y="22.437361"
     width="4.4499998"
     height="2.3499999"
     id="rect46" />
  <rect
     style="fill:#ffffff;stroke:#000000;stroke-width:0.10000000000000001"
     x="15.611944"
     y="22.437361"
     width="4.4499998"
     height="2.3499999"
     id="rect48" />
  <g
     style="font-size:0.80000001px;font-style:normal;font-weight:normal;text-anchor:middle;fill:#000000;font-family:sans"
     id="text50">
    <path
       d="m 16.097099,23.837362 0,-0.572656 0.197266,0 q 0.0668,0 0.101953,0.0082 0.04922,0.01133 0.08398,0.04102 0.04531,0.03828 0.06777,0.09785 0.02246,0.05957 0.02246,0.136133 0,0.06523 -0.01523,0.115625 -0.01523,0.05039 -0.03906,0.0834 -0.02383,0.03301 -0.05215,0.05195 -0.02832,0.01895 -0.06836,0.02871 -0.04004,0.0098 -0.09199,0.0098 z m 0.07578,-0.06758 0.122266,0 q 0.05664,0 0.08887,-0.01055 0.03223,-0.01055 0.05137,-0.02969 0.02695,-0.02695 0.04199,-0.07246 0.01504,-0.04551 0.01504,-0.110352 0,-0.08984 -0.02949,-0.138086 -0.02949,-0.04824 -0.07168,-0.06465 -0.03047,-0.01172 -0.09805,-0.01172 l -0.120313,0 z"
       style="font-size:0.80000001px;font-style:normal;font-weight:normal;text-anchor:middle;fill:#000000;font-family:sans"
       id="path1454" />
    <path
       d="m 16.936943,23.78619 q -0.03906,0.0332 -0.0752,0.04687 -0.03613,0.01367 -0.07754,0.01367 -0.06836,0 -0.105078,-0.0334 -0.03672,-0.0334 -0.03672,-0.08535 0,-0.03047 0.01387,-0.05566 0.01387,-0.0252 0.03633,-0.04043 0.02246,-0.01524 0.05059,-0.02305 0.0207,-0.0055 0.0625,-0.01055 0.08516,-0.01016 0.12539,-0.02422 3.91e-4,-0.01445 3.91e-4,-0.01836 0,-0.04297 -0.01992,-0.06055 -0.02695,-0.02383 -0.08008,-0.02383 -0.04961,0 -0.07324,0.01738 -0.02363,0.01738 -0.03496,0.06152 l -0.06875,-0.0094 q 0.0094,-0.04414 0.03086,-0.07129 0.02149,-0.02715 0.06211,-0.0418 0.04063,-0.01465 0.09414,-0.01465 0.05313,0 0.08633,0.0125 0.0332,0.0125 0.04883,0.03145 0.01563,0.01894 0.02187,0.04785 0.0035,0.01797 0.0035,0.06484 l 0,0.09375 q 0,0.09805 0.0045,0.124024 0.0045,0.02598 0.01777,0.0498 l -0.07344,0 q -0.01094,-0.02187 -0.01406,-0.05117 z m -0.0059,-0.157031 q -0.03828,0.01563 -0.114843,0.02656 -0.04336,0.0062 -0.06133,0.01406 -0.01797,0.0078 -0.02773,0.02285 -0.0098,0.01504 -0.0098,0.0334 0,0.02813 0.02129,0.04687 0.02129,0.01875 0.0623,0.01875 0.04062,0 0.07227,-0.01777 0.03164,-0.01777 0.04648,-0.04863 0.01133,-0.02383 0.01133,-0.07031 z"
       style="font-size:0.80000001px;font-style:normal;font-weight:normal;text-anchor:middle;fill:#000000;font-family:sans"
       id="path1456" />
    <path
       d="m 17.108427,23.997128 -0.0078,-0.06602 q 0.02305,0.0063 0.04023,0.0063 0.02344,0 0.0375,-0.0078 0.01406,-0.0078 0.02305,-0.02187 0.0066,-0.01055 0.02148,-0.05234 0.002,-0.0059 0.0063,-0.01719 l -0.157422,-0.415625 0.07578,0 0.08633,0.240234 q 0.0168,0.0457 0.03008,0.09609 0.01211,-0.04844 0.02891,-0.09453 l 0.08867,-0.241796 0.07031,0 -0.157812,0.421875 q -0.02539,0.06836 -0.03945,0.09414 -0.01875,0.03477 -0.04297,0.05098 -0.02422,0.01621 -0.05781,0.01621 -0.02031,0 -0.04531,-0.0086 z"
       style="font-size:0.80000001px;font-style:normal;font-weight:normal;text-anchor:middle;fill:#000000;font-family:sans"
       id="path1458" />
    <path
       d="m 17.483427,23.713534 0.06953,-0.01094 q 0.0059,0.0418 0.03262,0.06406 0.02676,0.02227 0.07481,0.02227 0.04844,0 0.07187,-0.01973 0.02344,-0.01973 0.02344,-0.04629 0,-0.02383 -0.0207,-0.0375 -0.01445,-0.0094 -0.07187,-0.02383 -0.07734,-0.01953 -0.107227,-0.03379 -0.02988,-0.01426 -0.04531,-0.03945 -0.01543,-0.0252 -0.01543,-0.05566 0,-0.02773 0.0127,-0.05137 0.0127,-0.02363 0.03457,-0.03926 0.01641,-0.01211 0.04473,-0.02051 0.02832,-0.0084 0.06074,-0.0084 0.04883,0 0.08574,0.01406 0.03691,0.01406 0.05449,0.03809 0.01758,0.02402 0.02422,0.06426 l -0.06875,0.0094 q -0.0047,-0.03203 -0.02715,-0.05 -0.02246,-0.01797 -0.06348,-0.01797 -0.04844,0 -0.06914,0.01602 -0.0207,0.01601 -0.0207,0.0375 0,0.01367 0.0086,0.02461 0.0086,0.01133 0.02695,0.01875 0.01055,0.0039 0.06211,0.01797 0.07461,0.01992 0.104101,0.03262 0.02949,0.0127 0.04629,0.03691 0.0168,0.02422 0.0168,0.06016 0,0.03516 -0.02051,0.06621 -0.02051,0.03106 -0.05918,0.04805 -0.03867,0.01699 -0.0875,0.01699 -0.08086,0 -0.123242,-0.03359 -0.04238,-0.03359 -0.0541,-0.09961 z"
       style="font-size:0.80000001px;font-style:normal;font-weight:normal;text-anchor:middle;fill:#000000;font-family:sans"
       id="path1460" />
    <path
       d="m 18.131864,23.837362 0,-0.572656 0.07031,0 0,0.572656 z"
       style="font-size:0.80000001px;font-style:normal;font-weight:normal;text-anchor:middle;fill:#000000;font-family:sans"
       id="path1462" />
    <path
       d="m 18.582255,23.78619 q -0.03906,0.0332 -0.0752,0.04687 -0.03613,0.01367 -0.07754,0.01367 -0.06836,0 -0.105078,-0.0334 -0.03672,-0.0334 -0.03672,-0.08535 0,-0.03047 0.01387,-0.05566 0.01387,-0.0252 0.03633,-0.04043 0.02246,-0.01524 0.05059,-0.02305 0.0207,-0.0055 0.0625,-0.01055 0.08516,-0.01016 0.125391,-0.02422 3.9e-4,-0.01445 3.9e-4,-0.01836 0,-0.04297 -0.01992,-0.06055 -0.02695,-0.02383 -0.08008,-0.02383 -0.04961,0 -0.07324,0.01738 -0.02363,0.01738 -0.03496,0.06152 l -0.06875,-0.0094 q 0.0094,-0.04414 0.03086,-0.07129 0.02148,-0.02715 0.06211,-0.0418 0.04062,-0.01465 0.09414,-0.01465 0.05313,0 0.08633,0.0125 0.0332,0.0125 0.04883,0.03145 0.01563,0.01894 0.02188,0.04785 0.0035,0.01797 0.0035,0.06484 l 0,0.09375 q 0,0.09805 0.0045,0.124024 0.0045,0.02598 0.01777,0.0498 l -0.07344,0 q -0.01094,-0.02187 -0.01406,-0.05117 z m -0.0059,-0.157031 q -0.03828,0.01563 -0.114844,0.02656 -0.04336,0.0062 -0.06133,0.01406 -0.01797,0.0078 -0.02773,0.02285 -0.0098,0.01504 -0.0098,0.0334 0,0.02813 0.02129,0.04687 0.02129,0.01875 0.06231,0.01875 0.04062,0 0.07226,-0.01777 0.03164,-0.01777 0.04649,-0.04863 0.01133,-0.02383 0.01133,-0.07031 z"
       style="font-size:0.80000001px;font-style:normal;font-weight:normal;text-anchor:middle;fill:#000000;font-family:sans"
       id="path1464" />
    <path
       d="m 18.91038,23.774472 0.01016,0.06211 q -0.02969,0.0063 -0.05312,0.0063 -0.03828,0 -0.05937,-0.01211 -0.02109,-0.01211 -0.02969,-0.03184 -0.0086,-0.01973 -0.0086,-0.08301 l 0,-0.238672 -0.05156,0 0,-0.05469 0.05156,0 0,-0.102735 0.06992,-0.04219 0,0.144922 0.0707,0 0,0.05469 -0.0707,0 0,0.242578 q 0,0.03008 0.0037,0.03867 0.0037,0.0086 0.01211,0.01367 0.0084,0.0051 0.02402,0.0051 0.01172,0 0.03086,-0.0027 z"
       style="font-size:0.80000001px;font-style:normal;font-weight:normal;text-anchor:middle;fill:#000000;font-family:sans"
       id="path1466" />
    <path
       d="m 19.262724,23.703769 0.07266,0.009 q -0.01719,0.06367 -0.06367,0.09883 -0.04648,0.03516 -0.11875,0.03516 -0.09102,0 -0.144336,-0.05605 -0.05332,-0.05606 -0.05332,-0.157227 0,-0.104687 0.05391,-0.1625 0.05391,-0.05781 0.139844,-0.05781 0.0832,0 0.135938,0.05664 0.05273,0.05664 0.05273,0.159375 0,0.0062 -3.91e-4,0.01875 l -0.309375,0 q 0.0039,0.06836 0.03867,0.104688 0.03477,0.03633 0.08672,0.03633 0.03867,0 0.06602,-0.02031 0.02734,-0.02031 0.04336,-0.06484 z m -0.230859,-0.113672 0.23164,0 q -0.0047,-0.05234 -0.02656,-0.07852 -0.03359,-0.04062 -0.08711,-0.04062 -0.04844,0 -0.08145,0.03242 -0.03301,0.03242 -0.03652,0.08672 z"
       style="font-size:0.80000001px;font-style:normal;font-weight:normal;text-anchor:middle;fill:#000000;font-family:sans"
       id="path1468" />
    <path
       d="m 19.423271,23.837362 0,-0.414843 0.06328,0 0,0.06289 q 0.02422,-0.04414 0.04473,-0.0582 0.02051,-0.01406 0.04512,-0.01406 0.03555,0 0.07227,0.02266 l -0.02422,0.06523 q -0.02578,-0.01523 -0.05156,-0.01523 -0.02305,0 -0.04141,0.01387 -0.01836,0.01387 -0.02617,0.03848 -0.01172,0.0375 -0.01172,0.08203 l 0,0.217187 z"
       style="font-size:0.80000001px;font-style:normal;font-weight:normal;text-anchor:middle;fill:#000000;font-family:sans"
       id="path1470" />
  </g>
  <rect
     style="fill:#ffffff"
     x="15.611944"
     y="26.000694"
     width="4.4499998"
     height="2.3499999"
     id="rect52" />
  <rect
     style="fill:#ffffff;stroke:#000000;stroke-width:0.10000000000000001"
     x="15.611944"
     y="26.000694"
     width="4.4499998"
     height="2.3499999"
     id="rect54" />
  <g
     style="font-size:0.80000001px;font-style:normal;font-weight:normal;text-anchor:middle;fill:#000000;font-family:sans"
     id="text56">
    <path
       d="m 16.932646,27.400694 0,-0.505078 -0.188672,0 0,-0.06758 0.453906,0 0,0.06758 -0.189453,0 0,0.505078 z"
       style="font-size:0.80000001px;font-style:normal;font-weight:normal;text-anchor:middle;fill:#000000;font-family:sans"
       id="path1368" />
    <path
       d="m 17.551005,27.2671 0.07266,0.009 q -0.01719,0.06367 -0.06367,0.09883 -0.04649,0.03516 -0.11875,0.03516 -0.09102,0 -0.144336,-0.05606 -0.05332,-0.05605 -0.05332,-0.157226 0,-0.104688 0.05391,-0.1625 0.05391,-0.05781 0.139843,-0.05781 0.0832,0 0.135938,0.05664 0.05273,0.05664 0.05273,0.159375 0,0.0062 -3.9e-4,0.01875 l -0.309375,0 q 0.0039,0.06836 0.03867,0.104687 0.03477,0.03633 0.08672,0.03633 0.03867,0 0.06602,-0.02031 0.02734,-0.02031 0.04336,-0.06484 z m -0.230859,-0.113672 0.23164,0 q -0.0047,-0.05234 -0.02656,-0.07852 -0.03359,-0.04062 -0.08711,-0.04062 -0.04844,0 -0.08145,0.03242 -0.03301,0.03242 -0.03652,0.08672 z"
       style="font-size:0.80000001px;font-style:normal;font-weight:normal;text-anchor:middle;fill:#000000;font-family:sans"
       id="path1370" />
    <path
       d="m 17.684208,27.276866 0.06953,-0.01094 q 0.0059,0.0418 0.03262,0.06406 0.02676,0.02227 0.0748,0.02227 0.04844,0 0.07188,-0.01973 0.02344,-0.01973 0.02344,-0.04629 0,-0.02383 -0.0207,-0.0375 -0.01445,-0.0094 -0.07187,-0.02383 -0.07734,-0.01953 -0.107227,-0.03379 -0.02988,-0.01426 -0.04531,-0.03945 -0.01543,-0.0252 -0.01543,-0.05566 0,-0.02773 0.01269,-0.05137 0.0127,-0.02363 0.03457,-0.03926 0.01641,-0.01211 0.04473,-0.02051 0.02832,-0.0084 0.06074,-0.0084 0.04883,0 0.08574,0.01406 0.03691,0.01406 0.05449,0.03809 0.01758,0.02402 0.02422,0.06426 l -0.06875,0.0094 q -0.0047,-0.03203 -0.02715,-0.05 -0.02246,-0.01797 -0.06348,-0.01797 -0.04844,0 -0.06914,0.01601 -0.0207,0.01602 -0.0207,0.0375 0,0.01367 0.0086,0.02461 0.0086,0.01133 0.02695,0.01875 0.01055,0.0039 0.06211,0.01797 0.07461,0.01992 0.104102,0.03262 0.02949,0.0127 0.04629,0.03691 0.0168,0.02422 0.0168,0.06016 0,0.03516 -0.02051,0.06621 -0.02051,0.03105 -0.05918,0.04805 -0.03867,0.01699 -0.0875,0.01699 -0.08086,0 -0.123242,-0.03359 -0.04238,-0.03359 -0.0541,-0.09961 z"
       style="font-size:0.80000001px;font-style:normal;font-weight:normal;text-anchor:middle;fill:#000000;font-family:sans"
       id="path1372" />
    <path
       d="m 18.265849,27.337803 0.01016,0.06211 q -0.02969,0.0062 -0.05313,0.0062 -0.03828,0 -0.05937,-0.01211 -0.02109,-0.01211 -0.02969,-0.03184 -0.0086,-0.01973 -0.0086,-0.08301 l 0,-0.238672 -0.05156,0 0,-0.05469 0.05156,0 0,-0.102734 0.06992,-0.04219 0,0.144922 0.0707,0 0,0.05469 -0.0707,0 0,0.242578 q 0,0.03008 0.0037,0.03867 0.0037,0.0086 0.01211,0.01367 0.0084,0.0051 0.02402,0.0051 0.01172,0 0.03086,-0.0027 z"
       style="font-size:0.80000001px;font-style:normal;font-weight:normal;text-anchor:middle;fill:#000000;font-family:sans"
       id="path1374" />
    <path
       d="m 18.761943,27.400694 0,-0.137109 -0.248438,0 0,-0.06445 0.261328,-0.371093 0.05742,0 0,0.371093 0.07734,0 0,0.06445 -0.07734,0 0,0.137109 z m 0,-0.201563 0,-0.258203 -0.179297,0.258203 z"
       style="font-size:0.80000001px;font-style:normal;font-weight:normal;text-anchor:middle;fill:#000000;font-family:sans"
       id="path1376" />
  </g>
  <g
     id="g1359"
     transform="translate(0,-0.04341339)">
    <path
       inkscape:connector-curvature="0"
       id="path888"
       d="m 17.693458,7.0841594 0,0.6843889 -0.194028,-0.1031875 0.240771,0.4480277 0.239889,-0.4480277 -0.193146,0.1031875 0,-0.6843889 -0.09349,0 z"
       style="font-size:xx-small;font-style:normal;font-variant:normal;font-weight:normal;font-stretch:normal;text-indent:0;text-align:start;text-decoration:none;line-height:normal;letter-spacing:normal;word-spacing:normal;text-transform:none;direction:ltr;block-progression:tb;writing-mode:lr-tb;text-anchor:start;baseline-shift:baseline;color:#000000;fill:#000000;fill-opacity:1;stroke:none;stroke-width:0.10143717;marker:none;visibility:visible;display:inline;overflow:visible;enable-background:accumulate;clip-rule:nonzero;font-family:Sans;-inkscape-font-specification:Sans" />
    <path
       inkscape:connector-curvature="0"
       style="font-size:xx-small;font-style:normal;font-variant:normal;font-weight:normal;font-stretch:normal;text-indent:0;text-align:start;text-decoration:none;line-height:normal;letter-spacing:normal;word-spacing:normal;text-transform:none;direction:ltr;block-progression:tb;writing-mode:lr-tb;text-anchor:start;baseline-shift:baseline;color:#000000;fill:#000000;fill-opacity:1;stroke:none;stroke-width:0.10143717;marker:none;visibility:visible;display:inline;overflow:visible;enable-background:accumulate;clip-rule:nonzero;font-family:Sans;-inkscape-font-specification:Sans"
       d="m 17.693458,10.661056 0,0.684389 -0.194028,-0.103187 0.240771,0.448027 0.239889,-0.448027 -0.193146,0.103187 0,-0.684389 -0.09349,0 z"
       id="path1349" />
    <path
       id="path1351"
       d="m 17.693458,14.237953 0,0.684389 -0.194028,-0.103187 0.240771,0.448027 0.239889,-0.448027 -0.193146,0.103187 0,-0.684389 -0.09349,0 z"
       style="font-size:xx-small;font-style:normal;font-variant:normal;font-weight:normal;font-stretch:normal;text-indent:0;text-align:start;text-decoration:none;line-height:normal;letter-spacing:normal;word-spacing:normal;text-transform:none;direction:ltr;block-progression:tb;writing-mode:lr-tb;text-anchor:start;baseline-shift:baseline;color:#000000;fill:#000000;fill-opacity:1;stroke:none;stroke-width:0.10143717;marker:none;visibility:visible;display:inline;overflow:visible;enable-background:accumulate;clip-rule:nonzero;font-family:Sans;-inkscape-font-specification:Sans"
       inkscape:connector-curvature="0" />
    <path
       inkscape:connector-curvature="0"
       style="font-size:xx-small;font-style:normal;font-variant:normal;font-weight:normal;font-stretch:normal;text-indent:0;text-align:start;text-decoration:none;line-height:normal;letter-spacing:normal;word-spacing:normal;text-transform:none;direction:ltr;block-progression:tb;writing-mode:lr-tb;text-anchor:start;baseline-shift:baseline;color:#000000;fill:#000000;fill-opacity:1;stroke:none;stroke-width:0.10143717;marker:none;visibility:visible;display:inline;overflow:visible;enable-background:accumulate;clip-rule:nonzero;font-family:Sans;-inkscape-font-specification:Sans"
       d="m 17.693458,17.814849 0,0.684389 -0.194028,-0.103187 0.240771,0.448027 0.239889,-0.448027 -0.193146,0.103187 0,-0.684389 -0.09349,0 z"
       id="path1353" />
    <path
       id="path1355"
       d="m 17.693458,21.391746 0,0.684389 -0.194028,-0.103187 0.240771,0.448027 0.239889,-0.448027 -0.193146,0.103187 0,-0.684389 -0.09349,0 z"
       style="font-size:xx-small;font-style:normal;font-variant:normal;font-weight:normal;font-stretch:normal;text-indent:0;text-align:start;text-decoration:none;line-height:normal;letter-spacing:normal;word-spacing:normal;text-transform:none;direction:ltr;block-progression:tb;writing-mode:lr-tb;text-anchor:start;baseline-shift:baseline;color:#000000;fill:#000000;fill-opacity:1;stroke:none;stroke-width:0.10143717;marker:none;visibility:visible;display:inline;overflow:visible;enable-background:accumulate;clip-rule:nonzero;font-family:Sans;-inkscape-font-specification:Sans"
       inkscape:connector-curvature="0" />
    <path
       inkscape:connector-curvature="0"
       style="font-size:xx-small;font-style:normal;font-variant:normal;font-weight:normal;font-stretch:normal;text-indent:0;text-align:start;text-decoration:none;line-height:normal;letter-spacing:normal;word-spacing:normal;text-transform:none;direction:ltr;block-progression:tb;writing-mode:lr-tb;text-anchor:start;baseline-shift:baseline;color:#000000;fill:#000000;fill-opacity:1;stroke:none;stroke-width:0.10143717;marker:none;visibility:visible;display:inline;overflow:visible;enable-background:accumulate;clip-rule:nonzero;font-family:Sans;-inkscape-font-specification:Sans"
       d="m 17.693458,24.968642 0,0.684389 -0.194028,-0.103187 0.240771,0.448027 0.239889,-0.448027 -0.193146,0.103187 0,-0.684389 -0.09349,0 z"
       id="path1357" />
  </g>
</svg>
